<svg width="400" height="321" viewBox="0 0 400 321" fill="none" xmlns="http://www.w3.org/2000/svg">
<path opacity="0.18" d="M399.912 237.45C401.5 213.214 380.47 190.396 386.046 166.717C388.091 158.012 393.613 150.364 395.883 141.705C398.378 132.185 396.776 122.087 393.872 112.672C386.989 90.5469 373.253 70.9785 354.505 56.5902C327.496 35.9603 292.239 27.8397 257.821 26.0658C223.403 24.2919 188.971 28.293 154.532 29.1143C132.718 29.6333 110.427 28.9369 89.6353 35.3361C64.9856 42.918 44.2827 60.1775 29.9741 80.9585C15.6655 101.74 7.32171 125.891 2.30449 150.358C0.388955 159.825 -1.09712 169.648 1.07064 179.062C5.03124 196.145 20.0829 208.752 27.0702 224.915C31.9374 236.163 32.7077 248.712 37.125 260.137C44.5554 279.367 61.9248 293.867 81.2983 302.389C100.672 310.91 122.056 314.11 143.216 316.383C178.335 320.156 213.681 321.611 249.007 320.739C284.455 319.859 309.159 309.13 340.067 294.262C365.234 282.166 397.853 268.921 399.912 237.45Z" fill="#68E1FD"/>
<path d="M322.825 279.577C325.948 280.385 329.397 281.548 330.794 284.346C334.066 290.917 323.684 295.588 316.152 295.995C238.613 300.21 160.84 297.792 83.7443 288.768C74.971 287.737 65.182 286.061 60.0625 279.117C69.0403 267.711 86.0893 266.752 100.902 266.752C174.899 266.87 250.792 260.635 322.825 279.577Z" fill="url(#paint0_linear)"/>
<path d="M317.569 189.797L290.595 204.993L286.798 204.001C276.102 201.15 246.333 192.924 243.654 188.792C240.382 183.752 228.589 160.015 228.589 160.015L234.09 143.59L240.6 124.136C240.6 124.136 265.877 163.609 270.451 166.131C275.025 168.654 317.569 189.797 317.569 189.797Z" fill="#68E1FD"/>
<path d="M141.545 231.227C141.545 231.227 133.119 220.058 122.948 225.63C112.777 231.201 105.524 274.905 117.14 283.026C128.756 291.146 140.379 266.785 140.379 266.785L141.545 231.227Z" fill="#68E1FD"/>
<path d="M141.545 231.227C141.545 231.227 133.119 220.058 122.948 225.63C112.777 231.201 105.524 274.905 117.14 283.026C128.756 291.146 140.379 266.785 140.379 266.785L141.545 231.227Z" fill="url(#paint1_linear)"/>
<path d="M172.411 293.38C172.411 293.38 135.15 265.668 133.848 260.629C132.546 255.589 127.311 244.249 133.166 236.687C139.022 229.125 151.463 231.017 151.463 231.017C151.463 231.017 178.942 263.145 172.411 293.38Z" fill="#68E1FD"/>
<path d="M172.411 293.38C172.411 293.38 135.15 265.668 133.848 260.629C132.546 255.589 127.311 244.249 133.166 236.687C139.022 229.125 151.463 231.017 151.463 231.017C151.463 231.017 178.942 263.145 172.411 293.38Z" fill="#3F3D56"/>
<path d="M284.18 289.602C277.643 295.909 250.185 295.909 244.302 290.864C238.419 285.818 226.435 284.353 227.096 272.382L230.798 267.126L230.116 266.955L226.476 266.035L224.069 242.147L201.328 248.507L197.047 249.696L194.43 212.089C194.43 212.089 236.476 189.429 252.823 192.589C269.17 195.749 263.934 232.272 264.589 234.164C265.059 235.478 265.189 250.859 266.634 261.206C266.852 262.724 262.142 263.361 262.407 264.61C262.898 266.804 268.44 269.255 269.163 270.063C273.062 274.485 290.711 283.302 284.18 289.602Z" fill="#3F3D56"/>
<path d="M246.122 266.785L230.095 266.962L226.455 266.042L224.049 242.154L201.308 248.513L201.096 248.303L199.938 226.188C199.938 226.188 233.047 214.145 237.43 215.834C241.814 217.522 246.122 266.785 246.122 266.785Z" fill="url(#paint2_linear)"/>
<path d="M228.119 195.868L234.499 210.249L144.96 219.047C136.098 219.618 135.525 203.555 136.527 192.839C136.691 191.118 136.895 189.554 137.114 188.187C140.038 169.936 145.362 145.311 149.657 126.882C152.717 113.742 155.274 103.769 156.071 101.456C158.682 93.894 187.429 93.48 187.429 93.48C187.579 93.48 187.736 93.48 187.879 93.48C217.307 91.739 240.594 124.162 240.594 124.162L229.373 161.611L222.733 183.779L223.817 186.21L224.813 188.47L228.119 195.868Z" fill="#68E1FD"/>
<path d="M168.409 215.296C169.282 213.489 171.429 212.668 173.351 211.965C177.16 210.531 180.813 208.739 184.258 206.616C185.292 205.886 186.444 205.324 187.667 204.954C188.727 204.76 189.82 204.822 190.85 205.135C191.879 205.448 192.811 206.002 193.563 206.748C200.067 212.911 191.518 212.858 186.603 213.469C184.538 213.732 169.002 214.074 168.409 215.296Z" fill="url(#paint3_linear)"/>
<path d="M229.38 161.631L222.741 183.799L223.824 186.23C223.948 186.714 224.124 187.186 224.349 187.635C224.499 187.931 224.649 188.214 224.82 188.49C226.101 190.566 228.01 192.432 228.18 194.784C228.205 195.155 228.184 195.527 228.119 195.894C227.724 198.424 225.392 200.493 223.252 202.168C221.111 203.844 218.91 205.559 216.265 206.294C212.209 207.424 207.757 206.012 204.383 203.574C201.008 201.137 198.507 197.767 196.032 194.435C194.478 192.333 192.849 190.034 192.849 187.452C192.911 186.147 193.221 184.864 193.762 183.667C196.775 176.177 202.317 169.936 207.757 163.852L227.635 141.619C228.317 140.83 229.183 139.976 230.266 139.944C231.684 139.898 232.666 141.258 233.368 142.427L234.05 143.59L228.549 160.015C228.549 160.015 228.876 160.613 229.38 161.631Z" fill="url(#paint4_linear)"/>
<path d="M286.798 204.021C276.102 201.17 246.333 192.944 243.654 188.811C240.382 183.772 228.589 160.034 228.589 160.034L234.09 143.609L251.548 172.892C254.084 177.143 256.708 181.505 260.669 184.587C263.348 186.669 266.511 188.062 269.647 189.442C272.783 190.822 293.594 197.766 286.798 204.021Z" fill="url(#paint5_linear)"/>
<path d="M193.81 211.084C180.905 194.902 145.349 199.304 144.728 199.915C142.206 202.543 146.092 210.506 146.903 213.981C147.257 215.506 153.563 216.787 152.983 218.232L144.946 219.021C134.721 219.678 135.526 197.944 137.1 188.141C139.036 176.053 142.029 161.158 145.076 147.131C145.505 146.619 145.955 146.132 146.439 145.653C149.8 142.256 157.51 137.972 162.623 140.147C169.439 143.045 164.634 150.14 162.936 155.587C162.381 156.982 162.149 158.478 162.254 159.969C162.507 161.769 163.72 163.254 164.94 164.68C169.151 169.467 173.959 173.735 179.256 177.386C182.555 179.653 186.134 181.775 188.288 185.073C193.251 192.688 188.922 203.476 193.81 211.084Z" fill="#4CA4B8"/>
<path d="M301.605 185.848L347.114 208.614C347.114 208.614 349.159 212.03 347.918 215.295C346.678 218.561 342.465 225.223 336.228 224.047C329.99 222.871 290.841 202.668 290.841 202.668L301.605 185.848Z" fill="#68E1FD"/>
<path d="M301.605 185.848L347.114 208.614C347.114 208.614 349.159 212.03 347.918 215.295C346.678 218.561 342.465 225.223 336.228 224.047C329.99 222.871 290.841 202.668 290.841 202.668L301.605 185.848Z" fill="url(#paint6_linear)"/>
<path d="M204.075 121.297C201.948 121.876 199.658 121.297 197.667 120.345C190.891 117.145 186.679 109.938 186.263 102.678C185.847 95.4181 188.867 88.2239 193.543 82.5145C194.423 81.437 195.588 80.3136 196.952 80.3464C198.315 80.3793 199.378 81.437 200.251 82.4423C205.568 88.559 214.369 98.644 215.623 106.797C216.264 111.009 213.891 111.344 211.042 114.642C208.983 117.086 207.545 120.351 204.075 121.297Z" fill="url(#paint7_linear)"/>
<path d="M196.714 97.3958C196.714 97.3958 196.128 117.277 200.197 120.917C204.267 124.557 207.75 117.56 207.75 117.56L217.628 107.199L196.714 97.3958Z" fill="#998A84"/>
<path d="M255.72 103.861C252.85 106.916 249.844 109.892 246.292 112.185C239.182 116.784 230.218 118.295 221.752 117.264C214.996 116.436 208.302 113.979 203.401 109.419C197.429 103.887 194.62 95.7336 194.327 87.7378C194.034 79.7421 196.045 71.8712 198.513 64.2499C200.34 58.5997 202.473 52.9626 205.875 48.0351C215.848 33.581 235.099 27.6022 253.109 27.0766C262.046 26.8138 271.515 27.8059 278.754 32.8648C284.024 36.544 288.414 43.7448 287.466 50.2163C286.716 55.3344 282.476 60.6364 280.608 65.5114C275.107 79.8669 266.327 92.5603 255.72 103.861Z" fill="url(#paint8_linear)"/>
<path d="M289.729 63.3366C288.762 65.7404 287.33 67.9454 285.51 69.8344C283.508 71.8112 280.903 73.1197 278.075 73.5689C275.247 74.018 272.344 73.5843 269.79 72.331C265.993 70.36 263.232 66.7596 259.851 64.0922C252.775 58.501 242.42 57.5681 235.031 62.6796C232.924 64.1316 230.941 66.0763 228.452 66.4048C225.317 66.8122 222.256 64.5192 219.141 65.0908C216.237 65.5967 214.226 68.3758 212.753 71.0958C211.281 73.8158 209.89 76.7986 207.3 78.3229L208.24 70.8987C208.52 68.6846 208.793 66.3917 208.186 64.2498C207.579 62.108 205.841 60.1633 203.741 60.1567C201.642 60.1501 199.856 62.0949 199.133 64.2236C198.41 66.3523 198.451 68.6649 198.22 70.9184C197.947 73.6778 197.224 76.4767 195.575 78.6317C193.925 80.7866 196.386 84.7878 193.843 84.1505C191.116 83.4541 184.068 78.0929 182.936 75.3664C179.091 66.2471 180.366 55.6562 182.391 45.9194C184.04 37.9697 186.167 30.0593 189.773 22.8783C193.38 15.6972 198.588 9.20599 205.316 5.32309C211.127 2.01703 217.864 0.540279 224.587 1.09856C227.3 1.30852 229.98 1.81098 232.577 2.59653C233.601 2.97163 234.671 3.22106 235.76 3.33894C237.41 3.43092 239.005 2.81333 240.6 2.34686C250.6 -0.589949 261.276 2.45198 270.921 6.52541C276.095 8.71981 281.31 11.3281 285.046 15.7235C290.438 22.0701 291.529 30.6441 291.74 38.8566C291.951 47.3123 293.199 55.3146 289.729 63.3366Z" fill="#3F3D56"/>
<path d="M299.785 138.872C282.245 128.032 249.988 136.244 226.456 157.88C210.484 172.57 202.515 189.79 203.804 203.384C203.245 203.049 202.706 202.681 202.181 202.306C185.057 189.882 190.851 161.717 215.12 139.398C239.388 117.08 272.947 109.044 290.105 121.468C295.933 125.713 299.117 131.803 299.785 138.872Z" fill="#68E1FD"/>
<path d="M299.785 138.872C282.245 128.032 249.988 136.244 226.456 157.88C210.484 172.57 202.515 189.79 203.804 203.384C203.245 203.049 202.706 202.681 202.181 202.306C185.057 189.882 190.851 161.717 215.12 139.398C239.388 117.08 272.947 109.044 290.105 121.468C295.933 125.713 299.117 131.803 299.785 138.872Z" fill="#2A5A65"/>
<path d="M299.785 138.872C282.245 128.032 249.988 136.244 226.456 157.88C210.484 172.57 202.515 189.79 203.804 203.384C203.245 203.049 202.706 202.681 202.181 202.306C185.057 189.882 190.851 161.717 215.12 139.398C239.388 117.08 272.947 109.044 290.105 121.468C295.933 125.713 299.117 131.803 299.785 138.872Z" fill="url(#paint9_linear)"/>
<path d="M234.063 229.618C225.242 229.618 217.539 227.437 211.649 223.16C205.275 218.561 201.499 211.8 200.742 203.66C199.304 188.549 208.125 170.632 224.335 155.698C248.781 133.216 282.667 124.714 301.475 136.343C302.061 136.691 302.661 137.092 303.281 137.545C309.962 142.387 313.772 149.516 314.297 158.169C315.204 173.017 306.349 190.52 290.616 204.993C278.495 216.163 263.744 224.211 249.074 227.719C244.168 228.936 239.128 229.574 234.063 229.618ZM280.84 137.079C275.88 137.12 270.946 137.782 266.164 139.05C252.918 142.46 239.578 149.904 228.589 160.008C213.96 173.47 205.643 189.974 206.884 203.088C207.504 209.599 210.361 214.737 215.371 218.364C231.309 229.933 263.137 221.997 286.321 200.67C300.752 187.392 308.898 171.631 308.101 158.51C307.678 151.664 304.727 146.027 299.546 142.309C299.062 141.96 298.605 141.652 298.148 141.376C293.513 138.531 287.582 137.079 280.84 137.079Z" fill="#68E1FD"/>
<g opacity="0.69">
<path opacity="0.69" d="M314.277 158.188C313.752 149.536 309.948 142.42 303.261 137.558C302.634 137.112 302.041 136.711 301.461 136.363C282.647 124.734 248.76 133.235 224.315 155.718C208.104 170.632 199.283 188.568 200.722 203.679C201.499 211.82 205.275 218.567 211.629 223.179C213.277 224.377 215.053 225.403 216.925 226.241C222.303 228.577 228.151 229.735 234.049 229.631C239.109 229.595 244.145 228.966 249.046 227.758C256.658 225.891 263.97 223.031 270.778 219.257C277.966 215.304 284.622 210.513 290.595 204.993C301.502 194.935 309.144 183.417 312.457 172.334C313.892 167.752 314.508 162.969 314.277 158.188ZM286.328 200.696C263.15 222.023 231.322 229.959 215.371 218.39C210.367 214.763 207.518 209.625 206.891 203.108C205.643 190.007 213.967 173.496 228.596 160.034C239.585 149.936 252.925 142.486 266.17 139.076C270.951 137.809 275.882 137.146 280.84 137.105C287.582 137.105 293.506 138.557 298.155 141.428C298.612 141.704 299.068 142.013 299.518 142.361C304.706 146.113 307.658 151.723 308.08 158.569C308.892 171.657 300.752 187.418 286.321 200.696H286.328Z" fill="url(#paint10_linear)"/>
</g>
<path d="M307.146 190.474C306.615 192.76 306.035 195.151 304.42 196.925C302.218 199.383 298.55 200.132 296.089 202.339C295.743 202.627 295.463 202.98 295.265 203.377C294.74 204.625 295.755 206.005 296.976 206.662C298.047 207.21 299.267 207.43 300.471 207.292C301.676 207.155 302.808 206.667 303.718 205.894C302.766 206.284 301.841 206.734 300.95 207.24C300.548 207.47 300.111 207.773 300.071 208.226C300.03 208.679 300.534 209.139 301.011 209.382C302.35 210.037 303.865 210.283 305.352 210.086C306.84 209.888 308.229 209.258 309.335 208.278L306.853 209.665C306.342 209.954 305.763 210.374 305.844 210.933C305.906 211.353 306.322 211.629 306.724 211.813C308.038 212.388 309.505 212.556 310.923 212.297C312.341 212.037 313.641 211.361 314.645 210.361L309.56 213.252C310.048 213.862 310.702 214.33 311.449 214.603C312.196 214.877 313.008 214.946 313.793 214.802C315.364 214.487 316.832 213.811 318.074 212.831C320.735 210.963 323.068 208.696 324.986 206.117C327.29 203.009 329.001 199.028 327.713 195.408C326.397 191.676 322.416 189.554 318.749 187.819C316.022 186.505 313.145 185.224 310.078 184.974C308.476 184.843 307.91 184.718 307.562 186.111C307.215 187.504 307.46 189.068 307.146 190.474Z" fill="url(#paint11_linear)"/>
<path d="M184.17 173.694L182.398 195.289C182.398 195.289 147.264 193.64 136.534 192.839C135.266 192.74 134.339 192.661 133.855 192.596C133.095 192.449 132.39 192.111 131.81 191.617C127.426 188.22 122.266 176.539 123.391 162.985C124.693 147.216 156.071 101.456 156.071 101.456C158.76 103.052 161.253 104.937 163.501 107.073C178.989 121.922 169.793 140.305 169.793 140.305C169.793 140.305 153.433 156.684 156.071 162.354C158.709 168.024 184.17 173.694 184.17 173.694Z" fill="#68E1FD"/>
<path d="M177.449 294.037C175.749 294.013 174.057 293.792 172.411 293.38L172.077 293.288C151.266 287.559 144.96 219.047 144.96 219.047H145.11L160.577 216.879L194.409 212.122L200.545 229.158C200.545 229.158 205.794 294.162 177.449 294.037Z" fill="#3F3D56"/>
<path d="M142.861 209.494L142.554 209.389C142.554 209.389 142.649 209.205 142.861 209.494Z" fill="url(#paint12_linear)"/>
<path d="M180.468 293.387C179.499 293.742 178.482 293.963 177.449 294.044C175.622 294.218 173.779 293.963 172.077 293.301C169.799 292.356 167.865 290.778 166.521 288.768C160.856 280.792 150.842 263.145 147.352 235.012C146.473 227.903 145.73 222.759 145.109 219.027L160.577 216.859C162.472 222.056 168.409 238.882 169.139 248.034C170.011 258.953 162.608 278.696 172.629 284.57C182.65 290.443 180.468 293.387 180.468 293.387Z" fill="#232230"/>
<path d="M187.885 93.4536C187.762 96.0816 186.883 98.7097 185.261 100.293C181.389 104.058 171.075 104.892 165.907 106.331C165.103 106.554 164.292 106.784 163.501 107.073C162.585 107.384 161.723 107.827 160.945 108.387C159.336 109.577 158.327 111.357 157.359 113.078C154.787 117.677 152.219 122.276 149.656 126.875L138.77 146.349C134.577 153.865 130.289 161.677 129.717 170.192C129.24 177.36 131.441 184.455 131.762 191.617C127.379 188.22 122.218 176.538 123.343 162.984C124.645 147.216 156.023 101.456 156.023 101.456C158.634 93.8938 187.381 93.4799 187.381 93.4799C187.585 93.4733 187.742 93.4536 187.885 93.4536Z" fill="#4CA4B8"/>
<path d="M284.181 289.602C277.644 295.91 250.185 295.91 244.302 290.864C238.419 285.818 226.435 284.353 227.097 272.382L230.798 267.126C230.798 267.126 253.975 268.322 262.387 264.61C262.878 266.804 268.42 269.255 269.143 270.063C273.063 274.485 290.712 283.302 284.181 289.602Z" fill="url(#paint13_linear)"/>
<path d="M286.321 200.697C263.143 222.023 231.315 229.96 215.364 218.39C210.36 214.763 207.511 209.625 206.884 203.108C206.884 203.108 216.202 222.818 258.903 198.89C301.604 174.962 298.148 141.402 298.148 141.402C298.605 141.678 299.061 141.987 299.511 142.335C304.699 146.087 307.651 151.697 308.073 158.543C308.891 171.657 300.752 187.419 286.321 200.697Z" fill="#68E1FD"/>
<path d="M286.321 200.697C263.143 222.023 231.315 229.96 215.364 218.39C210.36 214.763 207.511 209.625 206.884 203.108C206.884 203.108 216.202 222.818 258.903 198.89C301.604 174.962 298.148 141.402 298.148 141.402C298.605 141.678 299.061 141.987 299.511 142.335C304.699 146.087 307.651 151.697 308.073 158.543C308.891 171.657 300.752 187.419 286.321 200.697Z" fill="url(#paint14_linear)"/>
<path d="M286.321 200.697C263.143 222.023 231.315 229.96 215.364 218.39C210.36 214.763 207.511 209.625 206.884 203.108C206.884 203.108 216.202 222.818 258.903 198.89C301.604 174.962 298.148 141.402 298.148 141.402C298.605 141.678 299.061 141.987 299.511 142.335C304.699 146.087 307.651 151.697 308.073 158.543C308.891 171.657 300.752 187.419 286.321 200.697Z" fill="url(#paint15_linear)"/>
<g opacity="0.69">
<path opacity="0.69" d="M286.109 200.493C262.932 221.813 231.097 229.749 215.146 218.179C210.142 214.553 207.293 209.415 206.666 202.897C205.425 189.797 213.742 173.286 228.371 159.824C239.359 149.726 252.7 142.276 265.952 138.866C270.732 137.598 275.664 136.935 280.622 136.895C287.357 136.895 293.281 138.347 297.93 141.218C298.387 141.494 298.843 141.803 299.293 142.151C304.481 145.902 307.433 151.513 307.855 158.359C308.68 171.447 300.541 187.208 286.109 200.493Z" fill="#CBEBF2"/>
</g>
<path d="M272.844 137.434L205.31 201.82C205.31 201.82 207.048 213.994 210.974 212.74L288.741 138.169C283.483 137.39 278.155 137.143 272.844 137.434Z" fill="url(#paint16_linear)"/>
<path d="M292.784 123.4L310.555 145.239C310.555 145.239 293.67 123.085 253.976 137.158L239.299 122.98C239.299 122.98 272.524 105.976 292.784 123.4Z" fill="#68E1FD"/>
<path d="M292.784 123.4L310.555 145.239C310.555 145.239 293.67 123.085 253.976 137.158L239.299 122.98C239.299 122.98 272.524 105.976 292.784 123.4Z" fill="url(#paint17_linear)"/>
<path d="M196.175 163.766C197.661 165.849 197.572 168.661 196.754 171.066C195.936 173.47 194.477 175.606 193.346 177.879C192.589 179.351 191.982 181.046 192.446 182.622C192.848 183.612 193.464 184.507 194.252 185.25C197.088 188.299 200.442 191.584 204.689 191.643C206.216 191.643 208.384 191.709 208.493 193.174C208.479 193.723 208.253 194.248 207.859 194.646C206.99 195.687 205.9 196.536 204.661 197.137C203.423 197.737 202.066 198.075 200.681 198.128L207.879 198.055C208.134 198.015 208.396 198.033 208.642 198.108C208.889 198.183 209.113 198.314 209.297 198.489C209.4 198.681 209.457 198.893 209.464 199.109C209.471 199.325 209.428 199.539 209.338 199.737C208.838 201.313 207.945 202.747 206.738 203.914C205.53 205.081 204.045 205.945 202.412 206.432C203.754 206.371 205.07 206.054 206.284 205.499C208.213 207.254 207 211.005 204.375 211.412C205.303 210.847 206.618 210.302 207.388 211.064C208.159 211.826 207.573 213.035 206.795 213.771C203.448 216.82 197.681 215.282 194.436 212.128C191.192 208.975 189.501 204.658 186.822 201.038C185.39 199.107 183.679 197.366 182.418 195.322C173.999 181.683 187.81 172.59 196.175 163.766Z" fill="url(#paint18_linear)"/>
<defs>
<linearGradient id="paint0_linear" x1="198.595" y1="197.464" x2="193.731" y2="355.38" gradientUnits="userSpaceOnUse">
<stop offset="0.01"/>
<stop offset="0.13" stop-opacity="0.69"/>
<stop offset="1" stop-opacity="0"/>
</linearGradient>
<linearGradient id="paint1_linear" x1="110.723" y1="253.99" x2="137.656" y2="253.99" gradientUnits="userSpaceOnUse">
<stop stop-color="#030708"/>
<stop offset="1" stop-color="#234C55"/>
</linearGradient>
<linearGradient id="paint2_linear" x1="11843" y1="25542.9" x2="19742.2" y2="21671.4" gradientUnits="userSpaceOnUse">
<stop offset="0.01"/>
<stop offset="0.13" stop-opacity="0.69"/>
<stop offset="1" stop-opacity="0"/>
</linearGradient>
<linearGradient id="paint3_linear" x1="8166.27" y1="4636.17" x2="7840.6" y2="3709.52" gradientUnits="userSpaceOnUse">
<stop offset="0.01"/>
<stop offset="0.13" stop-opacity="0.69"/>
<stop offset="1" stop-opacity="0"/>
</linearGradient>
<linearGradient id="paint4_linear" x1="12652.1" y1="22400.8" x2="14918.1" y2="22836.4" gradientUnits="userSpaceOnUse">
<stop offset="0.01"/>
<stop offset="0.13" stop-opacity="0.69"/>
<stop offset="1" stop-opacity="0"/>
</linearGradient>
<linearGradient id="paint5_linear" x1="19513.2" y1="21204.3" x2="24642.6" y2="20603.8" gradientUnits="userSpaceOnUse">
<stop offset="0.01"/>
<stop offset="0.13" stop-opacity="0.69"/>
<stop offset="1" stop-opacity="0"/>
</linearGradient>
<linearGradient id="paint6_linear" x1="348.129" y1="179.493" x2="323.598" y2="223.94" gradientUnits="userSpaceOnUse">
<stop stop-color="#152C32"/>
<stop offset="1" stop-color="#295762"/>
</linearGradient>
<linearGradient id="paint7_linear" x1="186.222" y1="100.937" x2="215.759" y2="100.937" gradientUnits="userSpaceOnUse">
<stop stop-color="#ECC4D7"/>
<stop offset="0.42" stop-color="#EFD4D1"/>
<stop offset="1" stop-color="#F2EAC9"/>
</linearGradient>
<linearGradient id="paint8_linear" x1="279.301" y1="26.999" x2="206.265" y2="117.82" gradientUnits="userSpaceOnUse">
<stop stop-color="#F1DECE"/>
<stop offset="1" stop-color="#EDC6D6"/>
</linearGradient>
<linearGradient id="paint9_linear" x1="249.876" y1="128.495" x2="203.832" y2="198.889" gradientUnits="userSpaceOnUse">
<stop stop-color="#3C8292"/>
<stop offset="1" stop-color="#12272B"/>
</linearGradient>
<linearGradient id="paint10_linear" x1="322.73" y1="140.981" x2="278.795" y2="169.528" gradientUnits="userSpaceOnUse">
<stop offset="0.02" stop-color="white" stop-opacity="0"/>
<stop offset="0.58" stop-color="white" stop-opacity="0.39"/>
<stop offset="0.68" stop-color="white" stop-opacity="0.68"/>
<stop offset="1" stop-color="white"/>
</linearGradient>
<linearGradient id="paint11_linear" x1="325.219" y1="184.886" x2="301.432" y2="216.516" gradientUnits="userSpaceOnUse">
<stop stop-color="#F1DECE"/>
<stop offset="1" stop-color="#EDC6D6"/>
</linearGradient>
<linearGradient id="paint12_linear" x1="207.303" y1="273.771" x2="207.441" y2="273.771" gradientUnits="userSpaceOnUse">
<stop offset="0.01"/>
<stop offset="0.13" stop-opacity="0.69"/>
<stop offset="1" stop-opacity="0"/>
</linearGradient>
<linearGradient id="paint13_linear" x1="21966.9" y1="15192.1" x2="25740.4" y2="18179.9" gradientUnits="userSpaceOnUse">
<stop offset="0.01"/>
<stop offset="0.13" stop-opacity="0.69"/>
<stop offset="1" stop-opacity="0"/>
</linearGradient>
<linearGradient id="paint14_linear" x1="31078.7" y1="29347.9" x2="46118.8" y2="29347.9" gradientUnits="userSpaceOnUse">
<stop offset="0.01"/>
<stop offset="0.13" stop-opacity="0.69"/>
<stop offset="1" stop-opacity="0"/>
</linearGradient>
<linearGradient id="paint15_linear" x1="294.763" y1="162.494" x2="219.817" y2="218.815" gradientUnits="userSpaceOnUse">
<stop offset="0.207113" stop-color="#C3EFF9"/>
<stop offset="1" stop-color="#415053"/>
</linearGradient>
<linearGradient id="paint16_linear" x1="29479" y1="23582.3" x2="32085.8" y2="29822.4" gradientUnits="userSpaceOnUse">
<stop offset="0.02" stop-color="white" stop-opacity="0"/>
<stop offset="0.58" stop-color="white" stop-opacity="0.39"/>
<stop offset="0.68" stop-color="white" stop-opacity="0.68"/>
<stop offset="1" stop-color="white"/>
</linearGradient>
<linearGradient id="paint17_linear" x1="25354.4" y1="8294.55" x2="32802.2" y2="8294.55" gradientUnits="userSpaceOnUse">
<stop offset="0.02" stop-color="white" stop-opacity="0"/>
<stop offset="0.58" stop-color="white" stop-opacity="0.39"/>
<stop offset="0.68" stop-color="white" stop-opacity="0.68"/>
<stop offset="1" stop-color="white"/>
</linearGradient>
<linearGradient id="paint18_linear" x1="206.827" y1="163.744" x2="166.876" y2="191.434" gradientUnits="userSpaceOnUse">
<stop stop-color="#F1DECE"/>
<stop offset="1" stop-color="#EDC6D6"/>
</linearGradient>
</defs>
</svg>
