<svg width="22" height="22" viewBox="0 0 22 22" fill="none" xmlns="http://www.w3.org/2000/svg">
<path d="M12.2896 11.0062L21.7201 1.57572C22.0841 1.2242 22.0942 0.644192 21.7427 0.280214C21.3912 -0.0837635 20.8112 -0.0938561 20.4472 0.257667C20.4396 0.265022 20.4321 0.272538 20.4246 0.280214L10.9941 9.71073L1.56353 0.280161C1.19956 -0.0713625 0.619552 -0.0612699 0.268029 0.302708C-0.0749053 0.657774 -0.0749053 1.22065 0.268029 1.57572L9.69856 11.0062L0.268029 20.4368C-0.0896685 20.7945 -0.0896685 21.3745 0.268029 21.7323C0.62578 22.0899 1.20578 22.0899 1.56353 21.7323L10.9941 12.3017L20.4246 21.7323C20.7886 22.0838 21.3686 22.0737 21.7201 21.7097C22.063 21.3546 22.063 20.7918 21.7201 20.4368L12.2896 11.0062Z" fill="#D51522"/>
</svg>
